<svg width="41" height="36" viewBox="0 0 41 36" fill="none" xmlns="http://www.w3.org/2000/svg">
<path d="M5.00476 8.80432L10.0095 2.93475H30.0284L35.0332 8.80432M5.00476 8.80432V29.3478C5.00476 30.1261 5.35628 30.8726 5.982 31.423C6.60771 31.9734 7.45636 32.2826 8.34125 32.2826H31.6967C32.5816 32.2826 33.4302 31.9734 34.0559 31.423C34.6816 30.8726 35.0332 30.1261 35.0332 29.3478V8.80432M5.00476 8.80432H35.0332M26.6919 14.6739C26.6919 16.2306 25.9889 17.7235 24.7375 18.8243C23.486 19.925 21.7887 20.5434 20.019 20.5434C18.2492 20.5434 16.5519 19.925 15.3004 18.8243C14.049 17.7235 13.346 16.2306 13.346 14.6739" stroke="#1E1E1E" style="stroke:#1E1E1E;stroke:color(display-p3 0.1176 0.1176 0.1176);stroke-opacity:1;" stroke-width="4" stroke-linecap="round" stroke-linejoin="round"/>
</svg>
