<svg width="41" height="36" viewBox="0 0 41 36" fill="none" xmlns="http://www.w3.org/2000/svg">
<g clip-path="url(#clip0_50_6610)">
<path d="M34.7662 6.76472C33.9141 6.01488 32.9025 5.42007 31.789 5.01424C30.6755 4.60842 29.482 4.39954 28.2767 4.39954C27.0714 4.39954 25.878 4.60842 24.7645 5.01424C23.651 5.42007 22.6393 6.01488 21.7873 6.76472L20.0189 8.32015L18.2506 6.76472C16.5295 5.25082 14.1951 4.40032 11.7611 4.40032C9.32709 4.40032 6.99276 5.25082 5.27164 6.76472C3.55053 8.27861 2.58362 10.3319 2.58362 12.4729C2.58362 14.6138 3.55053 16.6671 5.27164 18.181L20.0189 31.1528L34.7662 18.181C35.6187 17.4315 36.2949 16.5417 36.7563 15.5622C37.2176 14.5828 37.4551 13.533 37.4551 12.4729C37.4551 11.4127 37.2176 10.3629 36.7563 9.38349C36.2949 8.40406 35.6187 7.51419 34.7662 6.76472Z" stroke="#757575" style="stroke:#757575;stroke:color(display-p3 0.4588 0.4588 0.4588);stroke-opacity:1;" stroke-width="4" stroke-linecap="round" stroke-linejoin="round"/>
</g>
<defs>
<clipPath id="clip0_50_6610">
<rect width="40.0379" height="35.2174" fill="white" style="fill:white;fill-opacity:1;"/>
</clipPath>
</defs>
</svg>
