<svg width="41" height="36" viewBox="0 0 41 36" fill="none" xmlns="http://www.w3.org/2000/svg">
<path d="M5.00476 8.80438L10.0095 2.93481H30.0284L35.0332 8.80438M5.00476 8.80438V29.3479C5.00476 30.1262 5.35628 30.8727 5.982 31.4231C6.60771 31.9734 7.45636 32.2826 8.34125 32.2826H31.6967C32.5816 32.2826 33.4302 31.9734 34.0559 31.4231C34.6816 30.8727 35.0332 30.1262 35.0332 29.3479V8.80438M5.00476 8.80438H35.0332M26.6919 14.6739C26.6919 16.2306 25.9889 17.7236 24.7375 18.8244C23.486 19.9251 21.7887 20.5435 20.019 20.5435C18.2492 20.5435 16.5519 19.9251 15.3004 18.8244C14.049 17.7236 13.346 16.2306 13.346 14.6739" stroke="#757575" style="stroke:#757575;stroke:color(display-p3 0.4588 0.4588 0.4588);stroke-opacity:1;" stroke-width="4" stroke-linecap="round" stroke-linejoin="round"/>
</svg>
