<svg width="33" height="31" viewBox="0 0 33 31" fill="none" xmlns="http://www.w3.org/2000/svg">
<g clip-path="url(#clip0_85_392)">
<path d="M28.6549 5.95458C27.9526 5.29454 27.1188 4.77095 26.201 4.41373C25.2833 4.0565 24.2996 3.87263 23.3062 3.87263C22.3128 3.87263 21.3291 4.0565 20.4113 4.41373C19.4935 4.77095 18.6597 5.29454 17.9574 5.95458L16.4999 7.32374L15.0424 5.95458C13.6238 4.62197 11.6998 3.87333 9.69367 3.87333C7.6875 3.87333 5.7635 4.62197 4.34492 5.95458C2.92634 7.28718 2.12939 9.09457 2.12939 10.9792C2.12939 12.8637 2.92634 14.6711 4.34492 16.0037L16.4999 27.4221L28.6549 16.0037C29.3575 15.344 29.9149 14.5607 30.2952 13.6986C30.6754 12.8364 30.8712 11.9124 30.8712 10.9792C30.8712 10.0459 30.6754 9.12188 30.2952 8.25974C29.9149 7.39761 29.3575 6.6143 28.6549 5.95458Z" stroke="#757575" style="stroke:#757575;stroke:color(display-p3 0.4588 0.4588 0.4588);stroke-opacity:1;" stroke-width="4" stroke-linecap="round" stroke-linejoin="round"/>
</g>
<defs>
<clipPath id="clip0_85_392">
<rect width="33" height="31" fill="white" style="fill:white;fill-opacity:1;"/>
</clipPath>
</defs>
</svg>
