<svg width="30" height="23" viewBox="0 0 30 23" fill="none" xmlns="http://www.w3.org/2000/svg">
<g clip-path="url(#clip0_85_561)">
<path d="M26.0499 4.41791C25.4115 3.92821 24.6534 3.53974 23.8191 3.2747C22.9848 3.00966 22.0905 2.87325 21.1874 2.87325C20.2843 2.87325 19.39 3.00966 18.5557 3.2747C17.7214 3.53974 16.9634 3.92821 16.3249 4.41791L14.9999 5.43374L13.6749 4.41791C12.3853 3.42921 10.6362 2.87376 8.8124 2.87376C6.98861 2.87376 5.23952 3.42921 3.9499 4.41791C2.66029 5.40662 1.93579 6.74759 1.93579 8.14583C1.93579 9.54407 2.66029 10.885 3.9499 11.8737L14.9999 20.3454L26.0499 11.8737C26.6886 11.3843 27.1953 10.8031 27.541 10.1635C27.8868 9.52381 28.0647 8.83821 28.0647 8.14583C28.0647 7.45344 27.8868 6.76784 27.541 6.1282C27.1953 5.48855 26.6886 4.90739 26.0499 4.41791Z" stroke="#900B09" style="stroke:#900B09;stroke:color(display-p3 0.5640 0.0448 0.0360);stroke-opacity:1;" stroke-width="4" stroke-linecap="round" stroke-linejoin="round"/>
</g>
<defs>
<clipPath id="clip0_85_561">
<rect width="30" height="23" fill="white" style="fill:white;fill-opacity:1;"/>
</clipPath>
</defs>
</svg>
