<svg width="41" height="36" viewBox="0 0 41 36" fill="none" xmlns="http://www.w3.org/2000/svg">
<g clip-path="url(#clip0_53_1094)">
<path d="M34.7662 6.76465C33.9141 6.01482 32.9025 5.42 31.789 5.01418C30.6755 4.60835 29.482 4.39948 28.2767 4.39948C27.0714 4.39948 25.878 4.60835 24.7645 5.01418C23.651 5.42 22.6393 6.01482 21.7873 6.76465L20.0189 8.32009L18.2506 6.76465C16.5295 5.25076 14.1951 4.40026 11.7611 4.40026C9.32709 4.40026 6.99276 5.25076 5.27164 6.76465C3.55053 8.27855 2.58362 10.3318 2.58362 12.4728C2.58362 14.6138 3.55053 16.6671 5.27164 18.181L20.0189 31.1527L34.7662 18.181C35.6187 17.4315 36.2949 16.5416 36.7563 15.5622C37.2176 14.5828 37.4551 13.533 37.4551 12.4728C37.4551 11.4126 37.2176 10.3628 36.7563 9.38343C36.2949 8.404 35.6187 7.51413 34.7662 6.76465Z" stroke="#1E1E1E" style="stroke:#1E1E1E;stroke:color(display-p3 0.1176 0.1176 0.1176);stroke-opacity:1;" stroke-width="4" stroke-linecap="round" stroke-linejoin="round"/>
</g>
<defs>
<clipPath id="clip0_53_1094">
<rect width="40.0379" height="35.2174" fill="white" style="fill:white;fill-opacity:1;"/>
</clipPath>
</defs>
</svg>
