<svg width="30" height="23" viewBox="0 0 30 23" fill="none" xmlns="http://www.w3.org/2000/svg">
<g clip-path="url(#clip0_53_1175)">
<path d="M26.0499 4.4179C25.4115 3.92819 24.6534 3.53972 23.8191 3.27468C22.9848 3.00965 22.0905 2.87323 21.1874 2.87323C20.2843 2.87323 19.39 3.00965 18.5557 3.27468C17.7214 3.53972 16.9634 3.92819 16.3249 4.4179L14.9999 5.43373L13.6749 4.4179C12.3853 3.42919 10.6362 2.87374 8.8124 2.87374C6.98861 2.87374 5.23952 3.42919 3.9499 4.4179C2.66029 5.4066 1.93579 6.74757 1.93579 8.14581C1.93579 9.54405 2.66029 10.885 3.9499 11.8737L14.9999 20.3454L26.0499 11.8737C26.6886 11.3843 27.1953 10.8031 27.541 10.1634C27.8868 9.5238 28.0647 8.8382 28.0647 8.14581C28.0647 7.45343 27.8868 6.76783 27.541 6.12818C27.1953 5.48853 26.6886 4.90737 26.0499 4.4179Z" stroke="#900B09" style="stroke:#900B09;stroke:color(display-p3 0.5640 0.0448 0.0360);stroke-opacity:1;" stroke-width="4" stroke-linecap="round" stroke-linejoin="round"/>
</g>
<defs>
<clipPath id="clip0_53_1175">
<rect width="30" height="23" fill="white" style="fill:white;fill-opacity:1;"/>
</clipPath>
</defs>
</svg>
