<svg width="17" height="17" viewBox="0 0 17 17" fill="none" xmlns="http://www.w3.org/2000/svg">
<path d="M8.50004 8.49996C8.88962 8.49996 9.22313 8.36124 9.50056 8.08381C9.77799 7.80638 9.91671 7.47288 9.91671 7.08329C9.91671 6.69371 9.77799 6.3602 9.50056 6.08277C9.22313 5.80534 8.88962 5.66663 8.50004 5.66663C8.11046 5.66663 7.77695 5.80534 7.49952 6.08277C7.22209 6.3602 7.08337 6.69371 7.08337 7.08329C7.08337 7.47288 7.22209 7.80638 7.49952 8.08381C7.77695 8.36124 8.11046 8.49996 8.50004 8.49996ZM8.50004 13.7062C9.94032 12.384 11.0087 11.1828 11.7052 10.1026C12.4018 9.02235 12.75 8.06315 12.75 7.22496C12.75 5.93815 12.3398 4.88451 11.5193 4.06402C10.6988 3.24354 9.6924 2.83329 8.50004 2.83329C7.30768 2.83329 6.30126 3.24354 5.48077 4.06402C4.66028 4.88451 4.25004 5.93815 4.25004 7.22496C4.25004 8.06315 4.5983 9.02235 5.29483 10.1026C5.99136 11.1828 7.05976 12.384 8.50004 13.7062ZM8.50004 15.5833C6.59935 13.9659 5.17973 12.4637 4.24119 11.0765C3.30264 9.68937 2.83337 8.40551 2.83337 7.22496C2.83337 5.45413 3.40299 4.04336 4.54223 2.99267C5.68146 1.94197 7.00074 1.41663 8.50004 1.41663C9.99935 1.41663 11.3186 1.94197 12.4579 2.99267C13.5971 4.04336 14.1667 5.45413 14.1667 7.22496C14.1667 8.40551 13.6974 9.68937 12.7589 11.0765C11.8204 12.4637 10.4007 13.9659 8.50004 15.5833Z" fill="#C85A1F" style="fill:#C85A1F;fill:color(display-p3 0.7837 0.3526 0.1206);fill-opacity:1;"/>
</svg>
