<svg width="382" height="111" viewBox="0 0 382 111" fill="none" xmlns="http://www.w3.org/2000/svg">
<g filter="url(#filter0_d_191_1505)">
<path d="M0 10C0 4.47715 4.47715 0 10 0H372C377.523 0 382 4.47715 382 10V101C382 106.523 377.523 111 372 111H10C4.47715 111 0 106.523 0 101V10Z" fill="#DFF0C2" style="fill:#DFF0C2;fill:color(display-p3 0.8728 0.9423 0.7611);fill-opacity:1;"/>
<path d="M10 0.5H372C377.247 0.5 381.5 4.75329 381.5 10V101C381.5 106.247 377.247 110.5 372 110.5H10C4.75329 110.5 0.5 106.247 0.5 101V10C0.500001 4.7533 4.7533 0.5 10 0.5Z" stroke="#46C81F" style="stroke:#46C81F;stroke:color(display-p3 0.2753 0.7837 0.1206);stroke-opacity:1;"/>
</g>
<defs>
<filter id="filter0_d_191_1505" x="-4" y="0" width="390" height="119" filterUnits="userSpaceOnUse" color-interpolation-filters="sRGB">
<feFlood flood-opacity="0" result="BackgroundImageFix"/>
<feColorMatrix in="SourceAlpha" type="matrix" values="0 0 0 0 0 0 0 0 0 0 0 0 0 0 0 0 0 0 127 0" result="hardAlpha"/>
<feOffset dy="4"/>
<feGaussianBlur stdDeviation="2"/>
<feComposite in2="hardAlpha" operator="out"/>
<feColorMatrix type="matrix" values="0 0 0 0 0 0 0 0 0 0 0 0 0 0 0 0 0 0 0.25 0"/>
<feBlend mode="normal" in2="BackgroundImageFix" result="effect1_dropShadow_191_1505"/>
<feBlend mode="normal" in="SourceGraphic" in2="effect1_dropShadow_191_1505" result="shape"/>
</filter>
</defs>
</svg>
