<svg width="30" height="23" viewBox="0 0 30 23" fill="none" xmlns="http://www.w3.org/2000/svg">
<g clip-path="url(#clip0_65_854)">
<path d="M26.05 4.41791C25.4116 3.92821 24.6535 3.53974 23.8192 3.2747C22.9849 3.00966 22.0906 2.87325 21.1875 2.87325C20.2844 2.87325 19.3902 3.00966 18.5558 3.2747C17.7215 3.53974 16.9635 3.92821 16.325 4.41791L15 5.43374L13.675 4.41791C12.3854 3.42921 10.6363 2.87376 8.81253 2.87376C6.98874 2.87376 5.23964 3.42921 3.95003 4.41791C2.66041 5.40662 1.93591 6.74759 1.93591 8.14583C1.93591 9.54407 2.66041 10.885 3.95003 11.8737L15 20.3454L26.05 11.8737C26.6888 11.3843 27.1955 10.8031 27.5412 10.1635C27.8869 9.52381 28.0648 8.83821 28.0648 8.14583C28.0648 7.45344 27.8869 6.76784 27.5412 6.1282C27.1955 5.48855 26.6888 4.90739 26.05 4.41791Z" stroke="#1E1E1E" style="stroke:#1E1E1E;stroke:color(display-p3 0.1176 0.1176 0.1176);stroke-opacity:1;" stroke-width="4" stroke-linecap="round" stroke-linejoin="round"/>
</g>
<defs>
<clipPath id="clip0_65_854">
<rect width="30" height="23" fill="white" style="fill:white;fill-opacity:1;"/>
</clipPath>
</defs>
</svg>
