<svg width="30" height="23" viewBox="0 0 30 23" fill="none" xmlns="http://www.w3.org/2000/svg">
<g clip-path="url(#clip0_78_716)">
<path d="M26.05 4.4179C25.4116 3.92819 24.6535 3.53972 23.8192 3.27468C22.9849 3.00965 22.0906 2.87323 21.1875 2.87323C20.2844 2.87323 19.3902 3.00965 18.5558 3.27468C17.7215 3.53972 16.9635 3.92819 16.325 4.4179L15 5.43373L13.675 4.4179C12.3854 3.42919 10.6363 2.87374 8.81253 2.87374C6.98874 2.87374 5.23964 3.42919 3.95003 4.4179C2.66041 5.4066 1.93591 6.74757 1.93591 8.14581C1.93591 9.54405 2.66041 10.885 3.95003 11.8737L15 20.3454L26.05 11.8737C26.6888 11.3843 27.1955 10.8031 27.5412 10.1634C27.8869 9.5238 28.0648 8.8382 28.0648 8.14581C28.0648 7.45343 27.8869 6.76783 27.5412 6.12818C27.1955 5.48853 26.6888 4.90737 26.05 4.4179Z" stroke="#1E1E1E" style="stroke:#1E1E1E;stroke:color(display-p3 0.1176 0.1176 0.1176);stroke-opacity:1;" stroke-width="4" stroke-linecap="round" stroke-linejoin="round"/>
</g>
<defs>
<clipPath id="clip0_78_716">
<rect width="30" height="23" fill="white" style="fill:white;fill-opacity:1;"/>
</clipPath>
</defs>
</svg>
