<svg width="30" height="23" viewBox="0 0 30 23" fill="none" xmlns="http://www.w3.org/2000/svg">
<g clip-path="url(#clip0_65_870)">
<path d="M26.05 4.41796C25.4116 3.92825 24.6535 3.53978 23.8192 3.27475C22.9849 3.00971 22.0906 2.87329 21.1875 2.87329C20.2844 2.87329 19.3902 3.00971 18.5558 3.27475C17.7215 3.53978 16.9635 3.92825 16.325 4.41796L15 5.43379L13.675 4.41796C12.3854 3.42925 10.6363 2.8738 8.81253 2.8738C6.98874 2.8738 5.23964 3.42925 3.95003 4.41796C2.66041 5.40666 1.93591 6.74763 1.93591 8.14587C1.93591 9.54411 2.66041 10.8851 3.95003 11.8738L15 20.3455L26.05 11.8738C26.6888 11.3843 27.1955 10.8032 27.5412 10.1635C27.8869 9.52386 28.0648 8.83826 28.0648 8.14587C28.0648 7.45349 27.8869 6.76789 27.5412 6.12824C27.1955 5.48859 26.6888 4.90743 26.05 4.41796Z" stroke="#1E1E1E" style="stroke:#1E1E1E;stroke:color(display-p3 0.1176 0.1176 0.1176);stroke-opacity:1;" stroke-width="4" stroke-linecap="round" stroke-linejoin="round"/>
</g>
<defs>
<clipPath id="clip0_65_870">
<rect width="30" height="23" fill="white" style="fill:white;fill-opacity:1;"/>
</clipPath>
</defs>
</svg>
