<svg width="41" height="36" viewBox="0 0 41 36" fill="none" xmlns="http://www.w3.org/2000/svg">
<g clip-path="url(#clip0_65_1997)">
<path d="M34.7663 6.76465C33.9142 6.01482 32.9026 5.42 31.7891 5.01418C30.6756 4.60835 29.4821 4.39948 28.2768 4.39948C27.0716 4.39948 25.8781 4.60835 24.7646 5.01418C23.6511 5.42 22.6394 6.01482 21.7874 6.76465L20.019 8.32009L18.2507 6.76465C16.5296 5.25076 14.1953 4.40026 11.7612 4.40026C9.32721 4.40026 6.99288 5.25076 5.27177 6.76465C3.55065 8.27855 2.58374 10.3318 2.58374 12.4728C2.58374 14.6138 3.55065 16.6671 5.27177 18.181L20.019 31.1527L34.7663 18.181C35.6188 17.4315 36.295 16.5416 36.7564 15.5622C37.2178 14.5828 37.4552 13.533 37.4552 12.4728C37.4552 11.4126 37.2178 10.3628 36.7564 9.38343C36.295 8.404 35.6188 7.51413 34.7663 6.76465Z" stroke="#757575" style="stroke:#757575;stroke:color(display-p3 0.4588 0.4588 0.4588);stroke-opacity:1;" stroke-width="4" stroke-linecap="round" stroke-linejoin="round"/>
</g>
<defs>
<clipPath id="clip0_65_1997">
<rect width="40.0379" height="35.2174" fill="white" style="fill:white;fill-opacity:1;"/>
</clipPath>
</defs>
</svg>
