<svg width="41" height="36" viewBox="0 0 41 36" fill="none" xmlns="http://www.w3.org/2000/svg">
<path d="M5.00464 8.80432L10.0094 2.93475H30.0283L35.033 8.80432M5.00464 8.80432V29.3478C5.00464 30.1261 5.35616 30.8726 5.98187 31.423C6.60759 31.9734 7.45623 32.2826 8.34113 32.2826H31.6965C32.5814 32.2826 33.4301 31.9734 34.0558 31.423C34.6815 30.8726 35.033 30.1261 35.033 29.3478V8.80432M5.00464 8.80432H35.033M26.6918 14.6739C26.6918 16.2306 25.9888 17.7235 24.7373 18.8243C23.4859 19.925 21.7886 20.5434 20.0188 20.5434C18.2491 20.5434 16.5518 19.925 15.3003 18.8243C14.0489 17.7235 13.3459 16.2306 13.3459 14.6739" stroke="#757575" style="stroke:#757575;stroke:color(display-p3 0.4588 0.4588 0.4588);stroke-opacity:1;" stroke-width="4" stroke-linecap="round" stroke-linejoin="round"/>
</svg>
